<svg xmlns="http://www.w3.org/2000/svg" viewBox="0 0 42.324 48"><path d="M21.136 48L3.852 43.202 0 0h42.324l-3.856 43.195z" fill="#e44d26"/><path d="M21.162 44.327l14.005-3.883 3.295-36.912h-17.3z" fill="#f16529"/><path d="M21.162 8.83H7.876l1.43 16.023h11.857v-5.298h-7l-.484-5.426h7.496zm-9.17 18.673h-2.45l.742 8.32 10.854 3.013.024-.007v-5.513l-.023.006-5.9-1.593-.377-4.226z" fill="#ebebeb"/><path d="M21.144 33.32v5.512l10.862-3 1.454-16.267H21.144v5.298h6.525l-.615 6.872zm12.78-19.2h.017l.474-5.298H21.144v5.3z" fill="#fff"/></svg>