<svg viewBox="0 0 26 26" xmlns="http://www.w3.org/2000/svg"><g fill="#fff"><path d="M15.3 11.32a2.82 2.82 0 00-4.62 0 2.92 2.92 0 00-.54 1.68 2.85 2.85 0 005.7 0 2.92 2.92 0 00-.54-1.68z"/><path d="M17.09 11.34a4 4 0 01.33 1.66 4.43 4.43 0 01-8.86 0 3.91 3.91 0 01.33-1.65h-2.5V18A1.68 1.68 0 008 19.59h10A1.68 1.68 0 0019.59 18v-6.66zm-.64-1.83h2.73V6.74l-.34.02h-2.39z"/><path d="M19.46 0H6.52A6.53 6.53 0 000 6.52v13A6.53 6.53 0 006.52 26h13A6.53 6.53 0 0026 19.46V6.52A6.56 6.56 0 0019.46 0zM21 11.32V18a3 3 0 01-3 3H8a3 3 0 01-3-3V8a3 3 0 013-3h10a3 3 0 013 3v3.3z"/></g></svg>