<svg viewBox="0 0 132.609 24.261" xmlns="http://www.w3.org/2000/svg"><path d="M129.42 19.353c-.177.645-.39 1.281-.638 1.903a7.289 7.289 0 01-.841 1.56 3.91 3.91 0 01-1.113 1.054c-.439.265-.943.4-1.455.39a6.44 6.44 0 01-.748-.04 2.692 2.692 0 01-.644-.155v-1.33h.684c.26 0 .52-.044.765-.132.263-.097.5-.252.696-.453.24-.248.436-.535.58-.848a6.05 6.05 0 00.429-1.32l-3.826-12.349h2.134l2.76 9.576h.092l2.33-9.576h1.984zM115.232 8.919c.693-1.048 1.77-1.573 3.232-1.573a4.37 4.37 0 011.748.316c.472.201.883.524 1.19.935.329.457.56.976.679 1.526.151.686.224 1.387.214 2.089h-2.02a9.691 9.691 0 00-.087-1.394 3.008 3.008 0 00-.296-.982 1.417 1.417 0 00-.557-.585 1.764 1.764 0 00-.87-.195c-.775 0-1.34.36-1.696 1.079s-.534 1.794-.534 3.224v.907c0 1.423.175 2.494.523 3.213.348.72.917 1.079 1.707 1.079.309.01.615-.062.888-.207.25-.144.455-.354.592-.608.165-.308.274-.642.325-.987.07-.448.103-.9.099-1.354h1.928a7.982 7.982 0 01-.21 1.854 4.612 4.612 0 01-.667 1.549 3.348 3.348 0 01-1.19 1.067 3.66 3.66 0 01-1.765.396 4.402 4.402 0 01-1.91-.385 3.238 3.238 0 01-1.329-1.182 5.844 5.844 0 01-.777-2.014 14.176 14.176 0 01-.255-2.88c0-2.21.346-3.84 1.039-4.888zm-8.123-1.177a3.73 3.73 0 011.715-.395c.433-.006.864.06 1.276.195.373.126.707.347.968.642.288.336.5.731.62 1.157.16.566.234 1.153.22 1.74v8.892h-1.948v-8.754a3.704 3.704 0 00-.127-1.06 1.662 1.662 0 00-.36-.664 1.243 1.243 0 00-.556-.344 2.497 2.497 0 00-.719-.097c-.308 0-.612.079-.88.229a2.272 2.272 0 00-.737.664 3.52 3.52 0 00-.51 1.066 4.929 4.929 0 00-.191 1.432v7.528h-1.948V7.633h1.472l.267 1.42h.139a3.169 3.169 0 011.299-1.311zm-8.192 2.227a1.687 1.687 0 00-1.548-.914 2.521 2.521 0 00-1.12.23 2.023 2.023 0 00-.782.684 3.528 3.528 0 00-.487 1.127 9.14 9.14 0 00-.244 1.57h4.708c0-1.189-.176-2.087-.528-2.697zm-5.066-1.052c.785-1.047 1.959-1.57 3.521-1.57a4.616 4.616 0 011.8.326c.516.217.963.572 1.288 1.026.375.544.637 1.156.772 1.8.189.87.276 1.76.262 2.65v1.226h-6.78c.008 1.438.234 2.492.68 3.165.444.673 1.127 1.01 2.048 1.01a1.883 1.883 0 001.527-.74c.2-.263.35-.56.44-.878a3.98 3.98 0 00.158-1.158h1.927a5.53 5.53 0 01-.296 1.875 4.01 4.01 0 01-.836 1.41 3.63 3.63 0 01-1.294.89c-.531.211-1.1.316-1.672.309a5.362 5.362 0 01-2.043-.361 3.502 3.502 0 01-1.48-1.147 5.424 5.424 0 01-.899-2.007 12.41 12.41 0 01-.302-2.941c0-2.209.393-3.837 1.179-4.885zm-6.133.683c-.364-.44-.895-.66-1.592-.659-.697 0-1.224.23-1.58.688-.357.459-.535 1.086-.535 1.88 0 .826.178 1.456.534 1.892.357.436.883.654 1.58.654.698 0 1.23-.228 1.593-.683.364-.454.546-1.076.546-1.863 0-.833-.182-1.47-.546-1.91zm.262 10.108h-3.438a1.722 1.722 0 00-.643.109c-.171.066-.326.17-.451.304a1.24 1.24 0 00-.267.458 1.786 1.786 0 00-.086.562c-.002.191.03.381.092.562.06.171.152.33.272.464.125.138.28.246.452.316.2.08.415.119.63.114h3.439a1.45 1.45 0 00.579-.114c.174-.075.333-.182.468-.316a1.417 1.417 0 00.423-1.026c.002-.19-.028-.38-.086-.562a1.204 1.204 0 00-.73-.762 1.76 1.76 0 00-.654-.11zm1.495-14.083h1.714c.003.351-.044.7-.139 1.038a2.93 2.93 0 01-.41.877 2.625 2.625 0 01-1.536 1.055c.351.364.628.793.817 1.262a4.33 4.33 0 01.295 1.65 4.933 4.933 0 01-.283 1.72c-.173.487-.447.93-.805 1.302a3.58 3.58 0 01-1.257.826 4.558 4.558 0 01-1.64.304h-1.308a1.13 1.13 0 00-.805.32 1.067 1.067 0 00-.238 1.21 1.2 1.2 0 00.25.356 1.1 1.1 0 00.793.327h3.568a3.09 3.09 0 011.216.23 2.725 2.725 0 011.512 1.542c.136.353.205.728.203 1.106a3.93 3.93 0 01-.238 1.376c-.151.417-.39.796-.7 1.113a3.338 3.338 0 01-1.148.744 4.163 4.163 0 01-1.564.276H84.24a3.636 3.636 0 01-1.344-.23 2.714 2.714 0 01-.967-.63 2.648 2.648 0 01-.585-.935 3.266 3.266 0 01-.197-1.14c0-.293.038-.585.116-.867.072-.268.182-.524.325-.762a2.58 2.58 0 01.51-.608 2.12 2.12 0 01.671-.401 2.054 2.054 0 01-.753-.797 2.217 2.217 0 01-.266-1.06 1.9 1.9 0 01.48-1.302c.35-.382.79-.668 1.28-.832a3.84 3.84 0 01-1.065-1.347 4.208 4.208 0 01-.383-1.84 5.102 5.102 0 01.278-1.743c.171-.489.446-.934.806-1.307a3.502 3.502 0 011.286-.826 4.81 4.81 0 011.708-.286c.317 0 .632.04.939.12.297.076.585.186.857.327.252-.127.485-.287.695-.476a2.454 2.454 0 00.712-1.107c.058-.191.103-.387.133-.584zm-12.34 9.876v-1.126a15.921 15.921 0 00-1.734.086 4.48 4.48 0 00-1.345.34c-.35.148-.653.39-.875.7-.223.35-.333.76-.314 1.173 0 .705.143 1.196.43 1.471.285.276.703.414 1.252.414a2.467 2.467 0 001.751-.758c.261-.276.466-.6.603-.954.162-.43.241-.886.231-1.345zm-3.442-7.937a5.68 5.68 0 011.617-.217c1.258 0 2.2.303 2.826.911.625.608.938 1.458.938 2.551v6.925c0 .29.07.5.209.625.124.12.29.188.463.19h.753v1.341a2.3 2.3 0 01-.486.183c-.261.067-.53.098-.8.092a1.942 1.942 0 01-1.274-.418 2.093 2.093 0 01-.695-1.107h-.116a3.4 3.4 0 01-1.268 1.193 3.645 3.645 0 01-1.766.424 4.735 4.735 0 01-.672-.052 3.674 3.674 0 01-.724-.183 2.879 2.879 0 01-.707-.378 2.49 2.49 0 01-.602-.631 3.226 3.226 0 01-.418-.935 4.77 4.77 0 01-.156-1.295c0-.849.158-1.543.475-2.081.313-.536.77-.973 1.32-1.262a6.04 6.04 0 012.004-.619c.833-.115 1.673-.17 2.514-.166V11.06a3.785 3.785 0 00-.081-.814 1.378 1.378 0 00-.904-1.043 2.75 2.75 0 00-.984-.15 2.16 2.16 0 00-.92.173 1.587 1.587 0 00-.586.453 1.73 1.73 0 00-.313.63 2.74 2.74 0 00-.093.705v.276h-1.922a.98.98 0 01-.024-.218v-.287c-.01-.514.09-1.024.296-1.496a2.9 2.9 0 01.828-1.078 3.64 3.64 0 011.268-.648zm-5.197 9.873v2.536H66.12v-2.536zM63.64 7.633v.883l-5.501 9.758h5.802v1.709h-8.466v-.917l5.49-9.713h-5.108v-1.72zM51.869 14.25v-.895a11.836 11.836 0 00-.14-1.96 4.371 4.371 0 00-.417-1.33 1.848 1.848 0 00-.702-.758 1.948 1.948 0 00-.98-.24c-1.484 0-2.226 1.464-2.226 4.391v.792c0 1.43.184 2.503.55 3.222.368.718.926 1.078 1.676 1.078.343.007.68-.076.98-.241.301-.18.545-.443.702-.757.21-.418.35-.867.418-1.33.1-.653.147-1.312.139-1.972zm-4.557 4.3h-.128l-.255 1.433h-1.472V3h1.947v5.804h.116a2.33 2.33 0 011.038-1.073 3.358 3.358 0 011.617-.384 3.01 3.01 0 011.461.373c.488.279.897.677 1.189 1.158.374.618.643 1.294.794 2 .208.953.305 1.927.29 2.902.015.985-.077 1.97-.272 2.935a6.282 6.282 0 01-.777 2.018c-.295.49-.715.89-1.217 1.164a3.417 3.417 0 01-1.606.373 2.956 2.956 0 01-1.571-.436 3.168 3.168 0 01-1.154-1.284zm-6.992-3.051v-1.124a15.961 15.961 0 00-1.733.086 4.488 4.488 0 00-1.345.338c-.35.15-.654.391-.876.7a1.998 1.998 0 00-.313 1.17c0 .703.143 1.193.429 1.468s.703.413 1.252.413a2.485 2.485 0 001.751-.757c.262-.275.467-.598.603-.952.163-.428.241-.884.232-1.342zM38.5 7.347c1.26 0 2.203.303 2.83.911.625.608.939 1.458.939 2.551v6.925c0 .291.07.5.209.626.124.12.29.188.463.189h.754v1.341c-.155.08-.318.141-.487.184a2.99 2.99 0 01-.8.092 1.945 1.945 0 01-1.276-.419 2.093 2.093 0 01-.695-1.106h-.116c-.313.5-.75.911-1.27 1.192a3.651 3.651 0 01-1.768.424 4.745 4.745 0 01-.673-.051 3.68 3.68 0 01-.725-.184 2.88 2.88 0 01-.707-.378 2.49 2.49 0 01-.603-.63 3.225 3.225 0 01-.418-.935 4.765 4.765 0 01-.156-1.296c0-.848.158-1.542.475-2.081a3.315 3.315 0 011.322-1.261 6.05 6.05 0 012.006-.62c.834-.115 1.675-.17 2.516-.166v-1.593a3.792 3.792 0 00-.08-.815 1.379 1.379 0 00-.905-1.043c-.317-.11-.65-.16-.985-.149a2.174 2.174 0 00-.922.172 1.587 1.587 0 00-.586.453 1.728 1.728 0 00-.313.63c-.062.23-.093.468-.093.706v.275h-1.925a.977.977 0 01-.024-.218v-.286c-.01-.515.09-1.025.296-1.497.187-.42.472-.788.83-1.078a3.645 3.645 0 011.269-.648 5.692 5.692 0 011.618-.217zm-25.214.209l-1.294 1.978-.006-.009L3.74 22.13h16.49l-3.862-5.903 1.286-1.964L24 24H0L12 5.583zm-2.572 8.887l1.295-1.977.005.009L20.26 1.87H3.769l3.862 5.903-1.286 1.964L0 0h24L12 18.417z"/></svg>