<svg viewBox="0 0 459.904 412.478" xmlns="http://www.w3.org/2000/svg"><g fill="#ef6c00"><path d="M123.465 144.566h46.543v138.07c0 14.008 11.358 25.352 25.352 25.352h69.2c13.993 0 25.352-11.343 25.352-25.352v-138.07h46.527a19.06 19.06 0 0017.601-11.764c2.933-7.094 1.301-15.295-4.145-20.74L243.413 5.565c-7.437-7.422-19.485-7.422-26.938 0L110.011 112.061a19.023 19.023 0 00-4.13 20.741c2.962 7.11 9.876 11.764 17.584 11.764z"/><path d="M437.036 196.315c-12.617 0-22.852 10.237-22.852 22.867v95.615c0 28.643-23.317 51.944-51.961 51.944H97.679c-28.644 0-51.945-23.3-51.945-51.944v-95.615c0-12.63-10.251-22.867-22.867-22.867C10.236 196.315 0 206.552 0 219.183v95.615c0 53.86 43.818 97.68 97.679 97.68h264.544c53.861 0 97.681-43.82 97.681-97.68v-95.615c0-12.63-10.237-22.868-22.868-22.868z"/></g></svg>