<svg xmlns="http://www.w3.org/2000/svg" viewBox="0 0 42.324 48"><path d="M0 0h42.324l-3.856 43.195L21.136 48 3.852 43.202z" fill="#264de4"/><path d="M38.462 3.532h-17.3v40.795l14.005-3.883z" fill="#2965f1"/><path d="M8.83 19.555l.475 5.298h11.857v-5.298zm-.472-5.425h12.805v-5.3H7.876zm1.184 13.373l.742 8.32 10.854 3.013.024-.007v-5.513l-.023.006-5.9-1.593-.377-4.226h-2.867z" fill="#ebebeb"/><path d="M21.144 24.854h6.525l-.615 6.872-5.9 1.595v5.512l10.862-3 2.41-26.992H21.144v5.3H28.6l-.482 5.426h-6.984z" fill="#fff"/></svg>