<svg version="1.1" viewBox="0 0 26 26" xmlns="http://www.w3.org/2000/svg">
 <g fill="#fff">
  <path d="m19.48 0h-12.98c-3.5908002 0.01649281-6.49453889 2.9291661-6.5 6.52v13c0.02733884 3.575213 2.9247197 6.463679 6.5 6.48h13c3.5908-0.01649 6.494539-2.929166 6.5-6.52v-13c-0.027431-3.5829825-2.936917-6.47461789-6.52-6.48zm-3 13h-2.48v8.05h-3.06v-8.05h-1.65v-3.3h1.44v-1.4c-0.064181-0.9296935 0.280104-1.8411782 0.942892-2.4962819 0.662789-0.6551038 1.578226-0.988736 2.507108-0.9137181h2.53v2.74h-1.79c-0.29 0-0.68 0.19-0.68 0.83v1.24h2.54z" fill="#fff"/>
 </g>
</svg>
