<svg version="1.1" viewBox="0 0 26.000008 26" xmlns="http://www.w3.org/2000/svg">
 <g fill="#fff">
  <path d="m15.3 11.32c-0.527729-0.753667-1.389939-1.202502-2.31-1.202502s-1.782271 0.448835-2.31 1.202502c-0.348955 0.490907-0.537571 1.07771-0.54 1.68 0 1.574011 1.275988 2.85 2.85 2.85 1.574011 0 2.85-1.275989 2.85-2.85-0.0024-0.60229-0.191045-1.189093-0.54-1.68z"/>
  <path d="m17.09 11.34c0.227144 0.523461 0.339663 1.089463 0.33 1.66 0 2.446621-1.983379 4.43-4.43 4.43s-4.43-1.983379-4.43-4.43c-0.011053-0.567432 0.1015543-1.130468 0.33-1.65h-2.5v6.65c0.045761 0.866141 0.7433543 1.555068 1.61 1.59h10c0.858848-0.0449 1.5451-0.731152 1.59-1.59v-6.66z"/>
  <polygon points="16.45 9.51 19.18 9.51 19.18 7.11 19.18 6.74 18.84 6.76 16.45 6.76"/>
  <path d="m19.46 0h-12.94c-3.5986132 0.00550669-6.51449331 2.9213868-6.52 6.52v13c0.02743154 3.582982 2.9369166 6.474618 6.52 6.48h13c3.590781-0.02749 6.485604-2.949119 6.48-6.54v-12.94c-0.021932-3.5995709-2.940379-6.50909231-6.54-6.52zm1.54 11.32v6.68c0 1.656854-1.343146 3-3 3h-10c-1.6568543 0-3-1.343146-3-3v-10c0-1.6568543 1.3431457-3 3-3h10c1.656854 0 3 1.3431457 3 3v3.3z"/>
 </g>
</svg>
