<svg xmlns="http://www.w3.org/2000/svg" viewBox="0 0 42.235 48"><path d="M3.92 43.157L0 0l42.235.016-3.887 43.108L21.084 48zm31.248-2.356l3.278-36.964H21.15l.617 39.313zM19.536 9.257h-4.2l-.05 22.122-8.154-2.224.016 5.057 12.387 3.344z" fill="#d4b830"/><g fill="#ebebeb"><path d="M18.152 37.145l-5.963-1.63L7.23 34.18v-2.487c0-2.438 0-2.487.247-2.405.132.05 1.944.544 4.02 1.12l3.772 1.038.066-22.073h4.118v14.034l-.148 14.034c-.082-.016-.61-.148-1.153-.296z" opacity=".986" fill-opacity="0" enable-background="new"/><path d="M7.15 34.213l-.016-5.057 8.154 2.224.05-22.106h4.2v28.283z" opacity=".986" fill-opacity=".922" enable-background="new"/></g><path d="M21.15 3.822h17.296l-3.278 36.964L21.15 44.6zm13.128 30.77l1.137-13.82-8.4.94v-7.38l8.96-.033.362-5.04-13.524.066.18 18.35 8.17-1.4-.115 4.085-8.236 2.19.082 5.008z" fill="#fdd83c"/></svg>