<svg version="1.1" viewBox="0 0 26.000008 26" xmlns="http://www.w3.org/2000/svg">
 <g fill="#fff">
  <path d="m19.46 0h-12.94c-3.5986132 0.00550669-6.51449331 2.9213868-6.52 6.52v13c0.02743154 3.582982 2.9369166 6.474618 6.52 6.48h13c3.590781-0.02749 6.485604-2.949119 6.48-6.54v-12.94c-0.021932-3.5995709-2.940379-6.50909231-6.54-6.52zm-10.8 21h-3.66v-10.69h3.66zm-1.88-12.34c-1.049341 0-1.9-0.850659-1.9-1.9s0.850659-1.9 1.9-1.9 1.9 0.850659 1.9 1.9c-0.016084 1.0426061-0.8573939 1.8839158-1.9 1.9zm14.27 12.34h-3.11v-5.16c0-1.26-0.17-2.87-1.88-2.87s-2 1.36-2 2.78v5.25h-3.13v-10.69h2.88v1.44h0.09c0.700725-1.029961 1.91118-1.590997 3.15-1.46 3.4 0 4 2 4 4.86z" fill="#fff"/>
 </g>
</svg>
