<svg version="1.1" viewBox="0 0 132.609 23.816807" xmlns="http://www.w3.org/2000/svg">
 <path d="m129.42 19.120123c-0.177 0.645-0.39 1.281-0.638 1.903-0.21584 0.552271-0.49826 1.076143-0.841 1.56-0.298 0.421-0.676 0.78-1.113 1.054-0.439 0.265-0.943 0.4-1.455 0.39-0.25 1e-3 -0.5-0.012-0.748-0.04-0.22023-0.02496-0.43653-0.07702-0.644-0.155v-1.33h0.684c0.26 0 0.52-0.044 0.765-0.132 0.263-0.097 0.5-0.252 0.696-0.453 0.24-0.248 0.436-0.535 0.58-0.848 0.19316-0.422086 0.33711-0.864999 0.429-1.32l-3.826-12.3489997h2.134l2.76 9.5759997h0.092l2.33-9.5759997h1.984zm-14.188-10.4339997c0.693-1.048 1.77-1.573 3.232-1.573 0.59816-0.015449 1.19311 0.092106 1.748 0.316 0.472 0.201 0.883 0.524 1.19 0.935 0.329 0.457 0.56 0.976 0.679 1.526 0.151 0.6859997 0.224 1.3869997 0.214 2.0889997h-2.02c5e-3 -0.466154-0.0245-0.932031-0.087-1.394-0.0417-0.341865-0.14184-0.6740257-0.296-0.9819997-0.12498-0.2449104-0.31851-0.4481702-0.557-0.585-0.26852-0.1384247-0.56809-0.2055694-0.87-0.195-0.775 0-1.34 0.36-1.696 1.079-0.356 0.7189997-0.534 1.7939997-0.534 3.2239997v0.907c0 1.423 0.175 2.494 0.523 3.213 0.348 0.72 0.917 1.079 1.707 1.079 0.309 0.01 0.615-0.062 0.888-0.207 0.25-0.144 0.455-0.354 0.592-0.608 0.165-0.308 0.274-0.642 0.325-0.987 0.07-0.448 0.103-0.9 0.099-1.354h1.928c3e-3 0.624085-0.0678 1.246335-0.21 1.854-0.12524 0.552941-0.35135 1.078052-0.667 1.549-0.30471 0.446522-0.71301 0.81262-1.19 1.067-0.54593 0.277597-1.1528 0.413755-1.765 0.396-0.65743 0.01595-1.31008-0.115608-1.91-0.385-0.54465-0.262224-1.00501-0.671672-1.329-1.182-0.38182-0.617258-0.64531-1.300241-0.777-2.014-0.18293-0.9488-0.26838-1.913818-0.255-2.88 0-2.21 0.346-3.8399997 1.039-4.8879997zm-8.123-1.177c0.53198-0.2665752 1.12001-0.4020114 1.715-0.395 0.433-6e-3 0.864 0.06 1.276 0.195 0.373 0.126 0.707 0.347 0.968 0.642 0.288 0.336 0.5 0.731 0.62 1.157 0.16 0.566 0.234 1.1529997 0.22 1.7399997v8.892h-1.948v-8.754c9e-3 -0.357612-0.0337-0.714653-0.127-1.0599997-0.0674-0.246029-0.19063-0.4732289-0.36-0.664-0.15132-0.1622278-0.34329-0.2810035-0.556-0.344-0.23367-0.067165-0.47589-0.099843-0.719-0.097-0.308 0-0.612 0.079-0.88 0.229-0.29158 0.1643452-0.54324 0.3910824-0.737 0.664-0.22886 0.3240547-0.40129 0.6844657-0.51 1.0659997-0.13365 0.465362-0.19801 0.947877-0.191 1.432v7.528h-1.948v-12.3399997h1.472l0.267 1.42h0.139c0.29334-0.5561997 0.74552-1.0125566 1.299-1.311zm-8.192 2.227c-0.297177-0.5771187-0.899127-0.9325336-1.548-0.914-0.386021-0.010123-0.769209 0.068567-1.12 0.23-0.315766 0.1560371-0.585322 0.3918123-0.782 0.684-0.226953 0.3443167-0.391781 0.7257577-0.487 1.1269997-0.126752 0.515259-0.208394 1.040576-0.244 1.57h4.708c0-1.189-0.176-2.087-0.528-2.6969997zm-5.066-1.052c0.785-1.047 1.959-1.57 3.521-1.57 0.61574-0.012499 1.227755 0.098343 1.8 0.326 0.516 0.217 0.963 0.572 1.288 1.026 0.375 0.544 0.637 1.156 0.772 1.7999997 0.189 0.87 0.276 1.76 0.262 2.65v1.226h-6.78c8e-3 1.438 0.234 2.492 0.68 3.165 0.444 0.673 1.127 1.01 2.048 1.01 0.597595 0.0097 1.164284-0.264973 1.527-0.74 0.2-0.263 0.35-0.56 0.44-0.878 0.109363-0.376122 0.162604-0.766328 0.158-1.158h1.927c0.01 0.638-0.09 1.272-0.296 1.875-0.17861 0.52255-0.46322 1.002578-0.836 1.41-0.36122 0.387538-0.802889 0.691314-1.294 0.89-0.531 0.211-1.1 0.316-1.672 0.309-0.698008 0.01382-1.391995-0.108813-2.043-0.361-0.588296-0.240915-1.099918-0.637422-1.48-1.147-0.433568-0.600595-0.739522-1.283632-0.899-2.007-0.217498-0.964797-0.318884-1.952135-0.302-2.941 0-2.209 0.393-3.8369997 1.179-4.8849997zm-6.133 0.683c-0.364-0.44-0.895-0.66-1.592-0.659-0.697 0-1.224 0.23-1.58 0.688-0.357 0.459-0.535 1.0859997-0.535 1.8799997 0 0.826 0.178 1.456 0.534 1.892 0.357 0.436 0.883 0.654 1.58 0.654 0.698 0 1.23-0.228 1.593-0.683 0.364-0.454 0.546-1.076 0.546-1.863 0-0.833-0.182-1.4699997-0.546-1.9099997zm0.262 10.1079997h-3.438c-0.21932-5e-3 -0.437566 0.03204-0.643 0.109-0.171 0.066-0.326 0.17-0.451 0.304-0.120976 0.131634-0.212057 0.287871-0.267 0.458-0.05849 0.18154-0.08753 0.371276-0.086 0.562-2e-3 0.191 0.03 0.381 0.092 0.562 0.06 0.171 0.152 0.33 0.272 0.464 0.125 0.138 0.28 0.246 0.452 0.316 0.2 0.08 0.415 0.119 0.63 0.114h3.439c0.198774 0.0021 0.395855-0.03671 0.579-0.114 0.174-0.075 0.333-0.182 0.468-0.316 0.274631-0.270264 0.42736-0.640713 0.423-1.026 2e-3 -0.19-0.028-0.38-0.086-0.562-0.113136-0.352786-0.382389-0.633842-0.73-0.762-0.20906-0.07778-0.430999-0.115108-0.654-0.11zm1.495-14.0829997h1.714c3e-3 0.351-0.044 0.7-0.139 1.038-0.087 0.313-0.226 0.61-0.41 0.877-0.365752 0.5276756-0.912209 0.9030097-1.536 1.055 0.351 0.364 0.628 0.793 0.817 1.262 0.205 0.5259997 0.305 1.0859997 0.295 1.6499997 0.0085 0.585587-0.08731 1.168011-0.283 1.72-0.173 0.487-0.447 0.93-0.805 1.302-0.356 0.361-0.784 0.643-1.257 0.826-0.523315 0.201345-1.079288 0.304403-1.64 0.304h-1.308c-0.300188-0.0045-0.58983 0.110631-0.805 0.32-0.327975 0.312011-0.423373 0.797016-0.238 1.21 0.061 0.133 0.146 0.254 0.25 0.356 0.209193 0.211818 0.495308 0.3298 0.793 0.327h3.568c0.417-6e-3 0.83 0.072 1.216 0.23 0.349 0.142 0.664 0.355 0.927 0.625 0.255 0.263 0.453 0.575 0.585 0.917 0.136 0.353 0.205 0.728 0.203 1.106 3e-3 0.47-0.077 0.936-0.238 1.376-0.151 0.417-0.39 0.796-0.7 1.113-0.327199 0.324595-0.718073 0.577914-1.148 0.744-0.498792 0.191512-1.029786 0.285217-1.564 0.276h-3.532c-0.458496 0.0088-0.914513-0.06927-1.344-0.23-0.363773-0.138243-0.693562-0.353101-0.967-0.63-0.258465-0.267152-0.457788-0.585728-0.585-0.935-0.132982-0.365249-0.199695-0.751305-0.197-1.14 0-0.293 0.038-0.585 0.116-0.867 0.072-0.268 0.182-0.524 0.325-0.762 0.137627-0.227755 0.309662-0.432848 0.51-0.608 0.197-0.174 0.424-0.31 0.671-0.401-0.318581-0.192527-0.578855-0.46801-0.753-0.797-0.175729-0.325601-0.267174-0.690006-0.266-1.06-0.0099-0.478995 0.161569-0.94404 0.48-1.302 0.35-0.382 0.79-0.668 1.28-0.832-0.452127-0.362852-0.81623-0.823365-1.065-1.347-0.264754-0.576615-0.395686-1.205636-0.383-1.84-0.0093-0.592739 0.08478-1.182563 0.278-1.7429997 0.171-0.489 0.446-0.934 0.806-1.307 0.362622-0.3666602 0.801745-0.6487101 1.286-0.826 0.547341-0.1978829 1.126052-0.2947865 1.708-0.286 0.317 0 0.632 0.04 0.939 0.12 0.297 0.076 0.585 0.186 0.857 0.327 0.252-0.127 0.485-0.287 0.695-0.476 0.174-0.159 0.326-0.34 0.452-0.539 0.11-0.177 0.198-0.368 0.26-0.568 0.058-0.191 0.103-0.387 0.133-0.584zm-12.34 9.8759997v-1.126c-0.579134-0.0029-1.157994 0.02582-1.734 0.086-0.463268 0.04281-0.917041 0.157516-1.345 0.34-0.35 0.148-0.653 0.39-0.875 0.7-0.223 0.35-0.333 0.76-0.314 1.173 0 0.705 0.143 1.196 0.43 1.471 0.285 0.276 0.703 0.414 1.252 0.414 0.316-1e-3 0.63-0.066 0.921-0.19 0.313-0.13 0.595-0.324 0.83-0.568 0.261-0.276 0.466-0.6 0.603-0.954 0.162-0.43 0.241-0.886 0.231-1.345zm-3.442-7.9369997c0.525749-0.1497697 1.070366-0.2228568 1.617-0.217 1.258 0 2.2 0.303 2.826 0.911 0.625 0.608 0.938 1.458 0.938 2.5509997v6.925c0 0.29 0.07 0.5 0.209 0.625 0.124 0.12 0.29 0.188 0.463 0.19h0.753v1.341c-0.155 0.08-0.318 0.14-0.486 0.183-0.261 0.067-0.53 0.098-0.8 0.092-0.460825 0.01634-0.912426-0.131834-1.274-0.418-0.343902-0.285345-0.587449-0.673268-0.695-1.107h-0.116c-0.311964 0.500976-0.748957 0.912122-1.268 1.193-0.543462 0.288075-1.150988 0.433937-1.766 0.424-0.224951-0.0013-0.44952-0.01873-0.672-0.052-0.246922-0.03625-0.489509-0.09757-0.724-0.183-0.252143-0.09241-0.490116-0.219643-0.707-0.378-0.236225-0.173281-0.440017-0.38689-0.602-0.631-0.188234-0.287419-0.329345-0.603063-0.418-0.935-0.111053-0.422487-0.163544-0.858227-0.156-1.295 0-0.849 0.158-1.543 0.475-2.081 0.313-0.536 0.77-0.973 1.32-1.262 0.626789-0.321625 1.305013-0.531116 2.004-0.619 0.833-0.115 1.673-0.17 2.514-0.166v-1.595c0.0025-0.273463-0.02467-0.54639-0.081-0.814-0.09295-0.4843986-0.437719-0.8821756-0.904-1.0429997-0.316145-0.109438-0.649606-0.1602705-0.984-0.15-0.315626-0.010279-0.629667 0.048774-0.92 0.173-0.228329 0.1026657-0.429131 0.257893-0.586 0.453-0.146379 0.1863474-0.252914 0.40078-0.313 0.6299997-0.06149 0.229963-0.09276 0.466958-0.093 0.705v0.276h-1.922c-0.01613-0.07154-0.02418-0.144664-0.024-0.218v-0.287c-0.01-0.514 0.09-1.0239997 0.296-1.4959997 0.187-0.42 0.47-0.789 0.828-1.078 0.375883-0.2973742 0.806793-0.5175873 1.268-0.648zm-5.197 9.8729997v2.536h-2.376v-2.536zm-4.856-9.8039997v0.883l-5.501 9.7579997h5.802v1.709h-8.466v-0.917l5.49-9.7129997h-5.108v-1.72zm-11.771 6.6169997v-0.895c0.0077-0.656084-0.03909-1.311676-0.14-1.96-0.06696-0.462784-0.207754-0.911826-0.417-1.3299997-0.157178-0.314268-0.400695-0.5772114-0.702-0.758-0.29992-0.1646777-0.637925-0.2474543-0.98-0.24-1.484 0-2.226 1.4639997-2.226 4.3909997v0.792c0 1.43 0.184 2.503 0.55 3.222 0.368 0.718 0.926 1.078 1.676 1.078 0.343 7e-3 0.68-0.076 0.98-0.241 0.301-0.18 0.545-0.443 0.702-0.757 0.21-0.418 0.35-0.867 0.418-1.33 0.1-0.653 0.147-1.312 0.139-1.972zm-4.557 4.3h-0.128l-0.255 1.433h-1.472v-16.9829997h1.947v5.804h0.116c0.218949-0.4618329 0.583679-0.8388611 1.038-1.073 0.49831-0.2614683 1.054339-0.3935124 1.617-0.384 0.510759-0.00164 1.013535 0.1267232 1.461 0.373 0.488 0.279 0.897 0.677 1.189 1.158 0.374 0.618 0.643 1.294 0.794 1.9999997 0.208 0.953 0.305 1.927 0.29 2.902 0.015 0.985-0.077 1.97-0.272 2.935-0.140408 0.712522-0.403303 1.395302-0.777 2.018-0.295 0.49-0.715 0.89-1.217 1.164-0.496862 0.253558-1.048246 0.381619-1.606 0.373-0.554184 0.0048-1.098559-0.146271-1.571-0.436-0.496115-0.312915-0.895617-0.757422-1.154-1.284zm-6.992-3.051v-1.124c-0.578799-0.0028-1.15732 0.02593-1.733 0.086-0.463138 0.0423-0.916887 0.156327-1.345 0.338-0.35 0.15-0.654 0.391-0.876 0.7-0.222872 0.348223-0.332231 0.757009-0.313 1.17 0 0.703 0.143 1.193 0.429 1.468s0.703 0.413 1.252 0.413c0.317-2e-3 0.63-0.066 0.922-0.19 0.312-0.13 0.594-0.324 0.829-0.567 0.262-0.275 0.467-0.598 0.603-0.952 0.163-0.428 0.241-0.884 0.232-1.342zm-1.82-8.1519997c1.26 0 2.203 0.303 2.83 0.911 0.625 0.608 0.939 1.458 0.939 2.5509997v6.925c0 0.291 0.07 0.5 0.209 0.626 0.124 0.12 0.29 0.188 0.463 0.189h0.754v1.341c-0.155 0.08-0.318 0.141-0.487 0.184-0.261298 0.0666-0.530405 0.09755-0.8 0.092-0.461591 0.01627-0.913908-0.132258-1.276-0.419-0.343723-0.285084-0.587254-0.672631-0.695-1.106h-0.116c-0.313 0.5-0.75 0.911-1.27 1.192-0.544151 0.288158-1.152342 0.434014-1.768 0.424-0.22526-1e-3 -0.450162-0.01805-0.673-0.051-0.247289-0.03655-0.49021-0.0982-0.725-0.184-0.252137-0.09242-0.490109-0.219655-0.707-0.378-0.236495-0.172893-0.440625-0.386163-0.603-0.63-0.188249-0.287411-0.329361-0.603057-0.418-0.935-0.111206-0.422798-0.163699-0.858889-0.156-1.296 0-0.848 0.158-1.542 0.475-2.081 0.313854-0.535863 0.771918-0.972792 1.322-1.261 0.627421-0.322003 1.306308-0.531829 2.006-0.62 0.834-0.115 1.675-0.17 2.516-0.166v-1.593c0.0028-0.273758-0.02399-0.547018-0.08-0.815-0.09333-0.4845451-0.438451-0.8822932-0.905-1.0429997-0.317-0.11-0.65-0.16-0.985-0.149-0.317-0.01-0.631 0.048-0.922 0.172-0.228329 0.1026657-0.429131 0.257893-0.586 0.453-0.146427 0.1863168-0.252968 0.40076-0.313 0.6299997-0.062 0.23-0.093 0.468-0.093 0.706v0.275h-1.925c-0.01616-0.07154-0.02421-0.144663-0.024-0.218v-0.286c-0.01-0.515 0.09-1.0249997 0.296-1.4969997 0.187-0.42 0.472-0.788 0.83-1.078 0.376251-0.2973796 0.807489-0.5175863 1.269-0.648 0.526105-0.1497008 1.071042-0.2227856 1.618-0.217z" fill="#fff"/>
 <g transform="translate(0 -.23287671)">
  <path d="m13.286 7.556-1.294 1.978-6e-3 -9e-3 -8.246 12.605h16.49l-3.862-5.903 1.286-1.964 6.346 9.737h-24l12-18.417zm-2.572 8.887 1.295-1.977 5e-3 9e-3 8.246-12.605h-16.491l3.862 5.903-1.286 1.964-6.345-9.737h24l-12 18.417z" fill="#fff"/>
 </g>
</svg>
