<svg version="1.1" viewBox="0 0 132.60899 24.260517" xmlns="http://www.w3.org/2000/svg">
 <path d="m129.42 19.353c-0.177 0.645-0.39 1.281-0.638 1.903a7.289 7.289 0 0 1-0.841 1.56c-0.298 0.421-0.676 0.78-1.113 1.054-0.439 0.265-0.943 0.4-1.455 0.39-0.25 1e-3 -0.5-0.012-0.748-0.04a2.692 2.692 0 0 1-0.644-0.155v-1.33h0.684c0.26 0 0.52-0.044 0.765-0.132 0.263-0.097 0.5-0.252 0.696-0.453 0.24-0.248 0.436-0.535 0.58-0.848a6.05 6.05 0 0 0 0.429-1.32l-3.826-12.349h2.134l2.76 9.576h0.092l2.33-9.576h1.984zm-14.188-10.434c0.693-1.048 1.77-1.573 3.232-1.573a4.37 4.37 0 0 1 1.748 0.316c0.472 0.201 0.883 0.524 1.19 0.935 0.329 0.457 0.56 0.976 0.679 1.526 0.151 0.686 0.224 1.387 0.214 2.089h-2.02a9.691 9.691 0 0 0-0.087-1.394 3.008 3.008 0 0 0-0.296-0.982 1.417 1.417 0 0 0-0.557-0.585 1.764 1.764 0 0 0-0.87-0.195c-0.775 0-1.34 0.36-1.696 1.079s-0.534 1.794-0.534 3.224v0.907c0 1.423 0.175 2.494 0.523 3.213 0.348 0.72 0.917 1.079 1.707 1.079 0.309 0.01 0.615-0.062 0.888-0.207 0.25-0.144 0.455-0.354 0.592-0.608 0.165-0.308 0.274-0.642 0.325-0.987 0.07-0.448 0.103-0.9 0.099-1.354h1.928a7.982 7.982 0 0 1-0.21 1.854 4.612 4.612 0 0 1-0.667 1.549 3.348 3.348 0 0 1-1.19 1.067 3.66 3.66 0 0 1-1.765 0.396 4.402 4.402 0 0 1-1.91-0.385 3.238 3.238 0 0 1-1.329-1.182 5.844 5.844 0 0 1-0.777-2.014 14.176 14.176 0 0 1-0.255-2.88c0-2.21 0.346-3.84 1.039-4.888zm-8.123-1.177a3.73 3.73 0 0 1 1.715-0.395c0.433-6e-3 0.864 0.06 1.276 0.195 0.373 0.126 0.707 0.347 0.968 0.642 0.288 0.336 0.5 0.731 0.62 1.157 0.16 0.566 0.234 1.153 0.22 1.74v8.892h-1.948v-8.754a3.704 3.704 0 0 0-0.127-1.06 1.662 1.662 0 0 0-0.36-0.664 1.243 1.243 0 0 0-0.556-0.344 2.497 2.497 0 0 0-0.719-0.097c-0.308 0-0.612 0.079-0.88 0.229a2.272 2.272 0 0 0-0.737 0.664 3.52 3.52 0 0 0-0.51 1.066 4.929 4.929 0 0 0-0.191 1.432v7.528h-1.948v-12.34h1.472l0.267 1.42h0.139a3.169 3.169 0 0 1 1.299-1.311zm-8.192 2.227a1.687 1.687 0 0 0-1.548-0.914 2.521 2.521 0 0 0-1.12 0.23 2.023 2.023 0 0 0-0.782 0.684 3.528 3.528 0 0 0-0.487 1.127 9.14 9.14 0 0 0-0.244 1.57h4.708c0-1.189-0.176-2.087-0.528-2.697zm-5.066-1.052c0.785-1.047 1.959-1.57 3.521-1.57a4.616 4.616 0 0 1 1.8 0.326c0.516 0.217 0.963 0.572 1.288 1.026 0.375 0.544 0.637 1.156 0.772 1.8 0.189 0.87 0.276 1.76 0.262 2.65v1.226h-6.78c8e-3 1.438 0.234 2.492 0.68 3.165 0.444 0.673 1.127 1.01 2.048 1.01a1.883 1.883 0 0 0 1.527-0.74c0.2-0.263 0.35-0.56 0.44-0.878a3.98 3.98 0 0 0 0.158-1.158h1.927c0.01 0.638-0.09 1.272-0.296 1.875a4.01 4.01 0 0 1-0.836 1.41 3.63 3.63 0 0 1-1.294 0.89c-0.531 0.211-1.1 0.316-1.672 0.309a5.362 5.362 0 0 1-2.043-0.361 3.502 3.502 0 0 1-1.48-1.147 5.424 5.424 0 0 1-0.899-2.007 12.41 12.41 0 0 1-0.302-2.941c0-2.209 0.393-3.837 1.179-4.885zm-6.133 0.683c-0.364-0.44-0.895-0.66-1.592-0.659-0.697 0-1.224 0.23-1.58 0.688-0.357 0.459-0.535 1.086-0.535 1.88 0 0.826 0.178 1.456 0.534 1.892 0.357 0.436 0.883 0.654 1.58 0.654 0.698 0 1.23-0.228 1.593-0.683 0.364-0.454 0.546-1.076 0.546-1.863 0-0.833-0.182-1.47-0.546-1.91zm0.262 10.108h-3.438a1.722 1.722 0 0 0-0.643 0.109c-0.171 0.066-0.326 0.17-0.451 0.304a1.24 1.24 0 0 0-0.267 0.458 1.786 1.786 0 0 0-0.086 0.562c-2e-3 0.191 0.03 0.381 0.092 0.562 0.06 0.171 0.152 0.33 0.272 0.464 0.125 0.138 0.28 0.246 0.452 0.316 0.2 0.08 0.415 0.119 0.63 0.114h3.439a1.45 1.45 0 0 0 0.579-0.114c0.174-0.075 0.333-0.182 0.468-0.316a1.417 1.417 0 0 0 0.423-1.026c2e-3 -0.19-0.028-0.38-0.086-0.562a1.204 1.204 0 0 0-0.73-0.762 1.76 1.76 0 0 0-0.654-0.11zm1.495-14.083h1.714c3e-3 0.351-0.044 0.7-0.139 1.038-0.087 0.313-0.226 0.61-0.41 0.877a2.625 2.625 0 0 1-1.536 1.055c0.351 0.364 0.628 0.793 0.817 1.262 0.205 0.526 0.305 1.086 0.295 1.65a4.933 4.933 0 0 1-0.283 1.72c-0.173 0.487-0.447 0.93-0.805 1.302-0.356 0.361-0.784 0.643-1.257 0.826a4.558 4.558 0 0 1-1.64 0.304h-1.308a1.13 1.13 0 0 0-0.805 0.32 1.067 1.067 0 0 0-0.238 1.21c0.061 0.133 0.146 0.254 0.25 0.356a1.1 1.1 0 0 0 0.793 0.327h3.568c0.417-6e-3 0.83 0.072 1.216 0.23 0.349 0.142 0.664 0.355 0.927 0.625 0.255 0.263 0.453 0.575 0.585 0.917 0.136 0.353 0.205 0.728 0.203 1.106 3e-3 0.47-0.077 0.936-0.238 1.376-0.151 0.417-0.39 0.796-0.7 1.113a3.338 3.338 0 0 1-1.148 0.744 4.163 4.163 0 0 1-1.564 0.276h-3.532a3.636 3.636 0 0 1-1.344-0.23 2.714 2.714 0 0 1-0.967-0.63 2.648 2.648 0 0 1-0.585-0.935 3.266 3.266 0 0 1-0.197-1.14c0-0.293 0.038-0.585 0.116-0.867 0.072-0.268 0.182-0.524 0.325-0.762a2.58 2.58 0 0 1 0.51-0.608c0.197-0.174 0.424-0.31 0.671-0.401a2.054 2.054 0 0 1-0.753-0.797 2.217 2.217 0 0 1-0.266-1.06 1.9 1.9 0 0 1 0.48-1.302c0.35-0.382 0.79-0.668 1.28-0.832a3.84 3.84 0 0 1-1.065-1.347 4.208 4.208 0 0 1-0.383-1.84 5.102 5.102 0 0 1 0.278-1.743c0.171-0.489 0.446-0.934 0.806-1.307a3.502 3.502 0 0 1 1.286-0.826 4.81 4.81 0 0 1 1.708-0.286c0.317 0 0.632 0.04 0.939 0.12 0.297 0.076 0.585 0.186 0.857 0.327 0.252-0.127 0.485-0.287 0.695-0.476 0.174-0.159 0.326-0.34 0.452-0.539 0.11-0.177 0.198-0.368 0.26-0.568 0.058-0.191 0.103-0.387 0.133-0.584zm-12.34 9.876v-1.126a15.921 15.921 0 0 0-1.734 0.086 4.48 4.48 0 0 0-1.345 0.34c-0.35 0.148-0.653 0.39-0.875 0.7-0.223 0.35-0.333 0.76-0.314 1.173 0 0.705 0.143 1.196 0.43 1.471 0.285 0.276 0.703 0.414 1.252 0.414 0.316-1e-3 0.63-0.066 0.921-0.19 0.313-0.13 0.595-0.324 0.83-0.568 0.261-0.276 0.466-0.6 0.603-0.954 0.162-0.43 0.241-0.886 0.231-1.345zm-3.442-7.937a5.68 5.68 0 0 1 1.617-0.217c1.258 0 2.2 0.303 2.826 0.911 0.625 0.608 0.938 1.458 0.938 2.551v6.925c0 0.29 0.07 0.5 0.209 0.625 0.124 0.12 0.29 0.188 0.463 0.19h0.753v1.341c-0.155 0.08-0.318 0.14-0.486 0.183-0.261 0.067-0.53 0.098-0.8 0.092a1.942 1.942 0 0 1-1.274-0.418 2.093 2.093 0 0 1-0.695-1.107h-0.116a3.4 3.4 0 0 1-1.268 1.193 3.645 3.645 0 0 1-1.766 0.424 4.735 4.735 0 0 1-0.672-0.052 3.674 3.674 0 0 1-0.724-0.183 2.879 2.879 0 0 1-0.707-0.378 2.49 2.49 0 0 1-0.602-0.631 3.226 3.226 0 0 1-0.418-0.935 4.77 4.77 0 0 1-0.156-1.295c0-0.849 0.158-1.543 0.475-2.081 0.313-0.536 0.77-0.973 1.32-1.262a6.04 6.04 0 0 1 2.004-0.619c0.833-0.115 1.673-0.17 2.514-0.166v-1.595a3.785 3.785 0 0 0-0.081-0.814 1.378 1.378 0 0 0-0.904-1.043 2.75 2.75 0 0 0-0.984-0.15 2.16 2.16 0 0 0-0.92 0.173 1.587 1.587 0 0 0-0.586 0.453 1.73 1.73 0 0 0-0.313 0.63 2.74 2.74 0 0 0-0.093 0.705v0.276h-1.922a0.98 0.98 0 0 1-0.024-0.218v-0.287c-0.01-0.514 0.09-1.024 0.296-1.496 0.187-0.42 0.47-0.789 0.828-1.078a3.64 3.64 0 0 1 1.268-0.648zm-5.197 9.873v2.536h-2.376v-2.536zm-4.856-9.804v0.883l-5.501 9.758h5.802v1.709h-8.466v-0.917l5.49-9.713h-5.108v-1.72zm-11.771 6.617v-0.895a11.836 11.836 0 0 0-0.14-1.96 4.371 4.371 0 0 0-0.417-1.33 1.848 1.848 0 0 0-0.702-0.758 1.948 1.948 0 0 0-0.98-0.24c-1.484 0-2.226 1.464-2.226 4.391v0.792c0 1.43 0.184 2.503 0.55 3.222 0.368 0.718 0.926 1.078 1.676 1.078 0.343 7e-3 0.68-0.076 0.98-0.241 0.301-0.18 0.545-0.443 0.702-0.757 0.21-0.418 0.35-0.867 0.418-1.33 0.1-0.653 0.147-1.312 0.139-1.972zm-4.557 4.3h-0.128l-0.255 1.433h-1.472v-16.983h1.947v5.804h0.116a2.33 2.33 0 0 1 1.038-1.073 3.358 3.358 0 0 1 1.617-0.384 3.01 3.01 0 0 1 1.461 0.373c0.488 0.279 0.897 0.677 1.189 1.158 0.374 0.618 0.643 1.294 0.794 2 0.208 0.953 0.305 1.927 0.29 2.902 0.015 0.985-0.077 1.97-0.272 2.935a6.282 6.282 0 0 1-0.777 2.018c-0.295 0.49-0.715 0.89-1.217 1.164a3.417 3.417 0 0 1-1.606 0.373 2.956 2.956 0 0 1-1.571-0.436 3.168 3.168 0 0 1-1.154-1.284zm-6.992-3.051v-1.124a15.961 15.961 0 0 0-1.733 0.086 4.488 4.488 0 0 0-1.345 0.338c-0.35 0.15-0.654 0.391-0.876 0.7a1.998 1.998 0 0 0-0.313 1.17c0 0.703 0.143 1.193 0.429 1.468s0.703 0.413 1.252 0.413c0.317-2e-3 0.63-0.066 0.922-0.19 0.312-0.13 0.594-0.324 0.829-0.567 0.262-0.275 0.467-0.598 0.603-0.952 0.163-0.428 0.241-0.884 0.232-1.342zm-1.82-8.152c1.26 0 2.203 0.303 2.83 0.911 0.625 0.608 0.939 1.458 0.939 2.551v6.925c0 0.291 0.07 0.5 0.209 0.626 0.124 0.12 0.29 0.188 0.463 0.189h0.754v1.341c-0.155 0.08-0.318 0.141-0.487 0.184a2.99 2.99 0 0 1-0.8 0.092 1.945 1.945 0 0 1-1.276-0.419 2.093 2.093 0 0 1-0.695-1.106h-0.116c-0.313 0.5-0.75 0.911-1.27 1.192a3.651 3.651 0 0 1-1.768 0.424 4.745 4.745 0 0 1-0.673-0.051 3.68 3.68 0 0 1-0.725-0.184 2.88 2.88 0 0 1-0.707-0.378 2.49 2.49 0 0 1-0.603-0.63 3.225 3.225 0 0 1-0.418-0.935 4.765 4.765 0 0 1-0.156-1.296c0-0.848 0.158-1.542 0.475-2.081a3.315 3.315 0 0 1 1.322-1.261 6.05 6.05 0 0 1 2.006-0.62c0.834-0.115 1.675-0.17 2.516-0.166v-1.593a3.792 3.792 0 0 0-0.08-0.815 1.379 1.379 0 0 0-0.905-1.043c-0.317-0.11-0.65-0.16-0.985-0.149-0.317-0.01-0.631 0.048-0.922 0.172a1.587 1.587 0 0 0-0.586 0.453 1.728 1.728 0 0 0-0.313 0.63c-0.062 0.23-0.093 0.468-0.093 0.706v0.275h-1.925a0.977 0.977 0 0 1-0.024-0.218v-0.286c-0.01-0.515 0.09-1.025 0.296-1.497 0.187-0.42 0.472-0.788 0.83-1.078a3.645 3.645 0 0 1 1.269-0.648 5.692 5.692 0 0 1 1.618-0.217z"/>
 <path d="m13.286 7.556-1.294 1.978-6e-3 -9e-3 -8.246 12.605h16.49l-3.862-5.903 1.286-1.964 6.346 9.737h-24l12-18.417zm-2.572 8.887 1.295-1.977 5e-3 9e-3 8.246-12.605h-16.491l3.862 5.903-1.286 1.964-6.345-9.737h24l-12 18.417z"/>
</svg>
