<svg version="1.1" viewBox="0 0 429.00037 360.56635" xmlns="http://www.w3.org/2000/svg">
 <title>man-laptop-v1</title>
 <desc>Created with Sketch.</desc>
 <defs>
  <linearGradient id="h" x1="248.59425" x2="248.59425" y1="368.70221" y2="24.64066" gradientTransform="scale(1.0198949 .98049322)" gradientUnits="userSpaceOnUse">
   <stop stop-color="#76AADB" offset="0"/>
   <stop stop-color="#4A72B2" offset="1"/>
  </linearGradient>
  <linearGradient id="g" x1="101.31367" x2="283.73637" y1="271.12281" y2="271.12281" gradientTransform="scale(1.1358784 .88037597)" gradientUnits="userSpaceOnUse">
   <stop stop-color="#2ACAFF" offset="0"/>
   <stop stop-color="#2ADFC3" offset="1"/>
  </linearGradient>
  <linearGradient id="f" x1="45.034726" x2="84.080953" y1="98.525528" y2="98.525528" gradientTransform="scale(3.6369711 .27495407)" gradientUnits="userSpaceOnUse">
   <stop stop-color="#2ACAFF" offset="0"/>
   <stop stop-color="#2ADFC3" offset="1"/>
  </linearGradient>
  <linearGradient id="e" x1=".039573655" x2="55.167042" y1="30.703099" y2="30.703099" gradientTransform="scale(4.3861577 .22798998)" gradientUnits="userSpaceOnUse">
   <stop stop-color="#fff" offset="0"/>
   <stop stop-color="#F7F7F8" offset="1"/>
  </linearGradient>
  <linearGradient id="d" x1="4.78619" x2="54.238186" y1="-1051.5139" y2="-1051.5139" gradientTransform="scale(3.9341286 .2541859)" gradientUnits="userSpaceOnUse">
   <stop stop-color="#fff" offset="0"/>
   <stop stop-color="#F7F7F8" offset="1"/>
  </linearGradient>
  <linearGradient id="c" x1="-1.8401304e-10" x2="142.2306" y1="344.37159" y2="344.37159" gradientTransform="scale(1.1436357 .87440431)" gradientUnits="userSpaceOnUse">
   <stop stop-color="#2ACAFF" offset="0"/>
   <stop stop-color="#2ADFC3" offset="1"/>
  </linearGradient>
  <linearGradient id="b" x1="95.479672" x2="119.93288" y1="286.12806" y2="286.12806" gradientTransform="scale(1.2215166 .81865448)" gradientUnits="userSpaceOnUse">
   <stop stop-color="#2ACAFF" offset="0"/>
   <stop stop-color="#2ADFC3" offset="1"/>
  </linearGradient>
  <linearGradient id="a" x1="134.02023" x2="143.22267" y1="231.0662" y2="231.0662" gradientTransform="scale(1.0855823 .92116458)" gradientUnits="userSpaceOnUse">
   <stop stop-color="#2ACAFF" offset="0"/>
   <stop stop-color="#2ADFC3" offset="1"/>
  </linearGradient>
 </defs>
 <g transform="translate(-.00179854 -.95050977)" fill="none" fill-rule="evenodd">
  <path id="i" d="m117.16 302.28s-87.93-60.85 0-143.9 190.08-131.38 253.91-134.19 73.77 150.36 35.46 251.09-168.8 117.72-289.37 27z" fill="url(#h)"/>
  <path d="m312.8 202.22s41.23 50.22-9.9 82.69l-8-16.45s17.65-18.38 4.57-40.8z" fill="#ffcb9c"/>
  <path d="m130.15 202.22s-41.23 50.22 9.9 82.69l8-16.45s-17.65-18.38-4.57-40.8z" fill="#ffcb9c"/>
  <path d="m322.29 212.84c-21-41.79-60.19-48-60.19-48v0.26l-12.5-3.1c-26.38491-5.6196-53.74979-4.63026-79.66 2.88 0 0-38.34 10.23-54.86 54l24 13.1c-2 20.78-1.49 46.76 3.74 79 12.33-3.92 26.3 1.26 39.13 2.07 15.24 1 28.89-0.62 43.9 1.6 27.27 4 55.1 2.23 82.58 4.36 0.38-24.55-0.73-59.1-7.51-91.41z" fill="url(#g)"/>
  <g transform="translate(179,53)">
   <path d="m88.88 56.91c-0.6 14.23-4.15 27.1-25.5 36.69 0 0-11 11-7.76 26.13s-38.1 14-31.93-6.92-4.07-44.92-11.57-58.58-4.38-42.23 12.88-51.45c6.77-3.64 23.63-2 34.63 3.46 18.5 9.08 30.12 30.05 29.25 50.67z" fill="#ffcb9c"/>
   <path d="m16.38 42c-3.194561-2.408768-7.2855984-3.293514-11.19-2.42-6.18 1.61-7.25 24.24 7.22 28.19s9.29-10.25 9.29-10.25z" fill="#ffcb9c"/>
   <path d="m89.63 54.49c-0.576571 0.07976-1.157938 0.119858-1.74 0.12-1.139275 0.01215-2.272249-0.170475-3.35-0.54-4.84 2.42-13.08 5.07-21.25 0.83-12.64-6.58-23.85-7.55-29.75-4.67-10.17 5-21.8 2.28-25.25-13.39 0 0-1.42 12.47 6.29 19s8 16.85 6.92 25.38-7.22 18 0.54 28.78 20.43 0 30 2.57 30.49 5.19 34.87-12.13-1.28-23.8 0-31c1.09-6.04 3.48-9.69 2.72-14.95z" fill="#191919"/>
   <g transform="translate(46,59)">
    <g fill="#ce3e3e">
     <path d="m13.79 4c-1.767921-1.4810771-3.8351386-2.5624434-6.06-3.17-2.94-0.55-6 0-7.27 3.64s1.9 7 5.95 10.1c2.39 1.73 11 4.9 16.23 3.46s8.05-2.87 9.7-5.94-0.37-6.93-2.77-8.24c-2.123211-1.0426357-4.622484-0.9791265-6.69 0.17-2.770709 1.7800374-6.327151 1.7722125-9.09-0.02z"/>
    </g>
    <g transform="translate(2,10)" fill="#ff7d7d">
     <path d="m0.4 0.9c3.0712005-0.98630295 6.3817596-0.93358704 9.42 0.15 3.904196 1.1215609 7.231535 3.6939879 9.3 7.19-4.24896 0.2876522-8.500773-0.5179545-12.35-2.34-2.5003215-1.120582-4.6875732-2.8374201-6.37-5z"/>
    </g>
   </g>
   <path d="m52 34.69c0 2.48-1 4.49-2.32 4.49s-2.32-2-2.32-4.49 1-4.46 2.32-4.46 2.32 1.99 2.32 4.46z" fill="#191919"/>
   <path d="m77.28 37.59c0 2.47-1 4.48-2.32 4.48s-2.32-2-2.32-4.48 1-4.47 2.32-4.47 2.32 2.01 2.32 4.47z" fill="#191919"/>
   <circle transform="rotate(-7,78.906087,34.72228)" cx="78.90609" cy="34.722279" r="14.27" stroke="#1d1d1b" stroke-width="2"/>
   <polygon points="57.07 50.85 65.06 22.62 72.6 52.56" fill="#ff6252"/>
   <g stroke="#1d1d1b" stroke-width="2">
    <path d="m61.7 32.41c0 7.881103-6.388897 14.27-14.27 14.27s-14.27-6.388897-14.27-14.27 6.388897-14.27 14.27-14.27c3.784639 0 7.41427 1.503442 10.090414 4.179586s4.179586 6.305775 4.179586 10.090414z"/>
    <path d="m68.22 25.26h-8.55"/>
    <path d="m33.61 28.55-26.6 8.29"/>
   </g>
   <g fill="#191919">
    <path d="m21.4 58.64c4e-3 2.80383-1.681827 5.333827-4.271067 6.409611-2.589241 1.075783-5.571596 0.485353-7.5556364-1.495824-1.9840401-1.981177-2.5787767-4.962677-1.5067329-7.553468 1.0720438-2.590792 3.5996033-4.280316 6.4034363-4.280319 3.823431-4e-6 6.924483 3.096572 6.93 6.92z"/>
    <path d="m23.76 66.81c0 3.313709-2.686292 6-6 6-3.313709 0-6-2.686291-6-6s2.686291-6 6-6c3.313708 0 6 2.686291 6 6z"/>
    <path d="m25.85 76.29c-3e-6 3.281098-1.977024 6.238929-5.008752 7.493615-3.031727 1.254686-6.520765 0.558994-8.839421-1.762524-2.3186547-2.321518-3.0100414-5.811412-1.751616-8.841589 1.258425-3.030177 4.218693-5.003548 7.499789-4.999502 2.149987-2e-6 4.211771 0.854761 5.731103 2.37597 1.519333 1.521208 2.371551 3.584044 2.368897 5.73403z"/>
    <path d="m25.85 89.41c4e-3 3.282005-1.97041 6.242905-5.001815 7.500743-3.031406 1.257838-6.522085 0.564617-8.842815-1.756113-2.3207298-2.32073-3.0139512-5.811409-1.756113-8.842815 1.257838-3.031405 4.218738-5.005859 7.500743-5.001815 4.471222 0.0055 8.09449 3.628778 8.1 8.1z"/>
    <path d="m29.5 103.82c0.0055 4.4722-3.61448 8.10261-8.086675 8.10996-4.472195 7e-3 -8.104102-3.61113-8.113302-8.08332-0.0092-4.472193 3.60779-8.105594 8.079977-8.11664 2.144681-0.0053 4.203485 0.842255 5.722819 2.355962s2.374533 3.569348 2.377181 5.714038z"/>
    <path d="m38.8 112.72c0 4.47351-3.626493 8.1-8.1 8.1s-8.1-3.62649-8.1-8.1 3.626493-8.1 8.1-8.1c2.149067-3e-3 4.210879 0.84988 5.7305 2.3695s2.372158 3.58143 2.3695 5.7305z"/>
    <path d="m54.27 111.91c-0.0193 4.44454-3.632852 8.03463-8.077424 8.02498-4.444572-0.01-8.0425-3.6154-8.0425-8.05998s3.597928-8.05033 8.0425-8.05998c4.444572-0.01 8.058124 3.58044 8.077424 8.02498z"/>
    <path d="m69.52 114.85c4e-3 3.28201-1.97041 6.24291-5.001815 7.50074-3.031406 1.25784-6.522085 0.56462-8.842815-1.75611s-3.013951-5.81141-1.756113-8.84282c1.257838-3.0314 4.218738-5.00585 7.500743-5.00181 4.473506 0 8.1 3.62649 8.1 8.1z"/>
    <path d="m84.83 110.09c0.04425 3.28068-1.892555 6.26482-4.906917 7.56035-3.014362 1.29554-6.512357 0.64722-8.862215-1.64254-2.349857-2.28975-3.088582-5.76977-1.871567-8.81668 1.217014-3.04692 4.149977-5.06038 7.430699-5.10113h0.11c4.434743-3.4e-4 8.04525 3.5656 8.1 8z"/>
    <circle cx="84.169998" cy="98.660004" r="8.1000004"/>
    <path d="m97 84.39c4e-3 3.282005-1.97041 6.242905-5.001815 7.500743-3.031406 1.257838-6.522085 0.564617-8.842815-1.756113s-3.013951-5.811409-1.756113-8.842815c1.257838-3.031405 4.218738-5.005859 7.500743-5.001815 4.464081-3e-6 8.084482 3.615922 8.09 8.08z"/>
    <path d="m95.93 70.54c-3e-6 3.281098-1.977024 6.238929-5.008751 7.493615-3.031728 1.254686-6.520767 0.558994-8.839422-1.762524s-3.010041-5.811412-1.751616-8.841589 4.218693-5.003548 7.499789-4.999502c4.475124 0.0055 8.100003 3.634873 8.1 8.11z"/>
    <path d="m96.33 60.74c0.304104 4.473191-3.074805 8.34631-7.547896 8.651876s-8.347315-3.072077-8.654343-7.545068 3.069349-8.348318 7.542239-8.656808h0.57c4.32152-0.146068 7.943365 3.238499 8.09 7.56z"/>
   </g>
  </g>
  <g transform="translate(134,180)">
   <rect x="2.8499999" y="118.47" width="177.32001" height="8.2600002" rx="3.8399999" fill="#afafaf"/>
   <rect x=".50999999" y=".76999998" width="182.05" height="122.32" rx="12.48" fill="#d8d8d8"/>
   <path d="m103.23 61.93c8e-3 4.7776-2.86311 9.089454-7.274328 10.924304-4.411219 1.83485-9.4934 0.83121-12.875968-2.542773-3.382569-3.373983-4.39912-8.453597-2.575486-12.869465s6.128177-7.298014 10.905782-7.302066c3.132097-8e-3 6.138642 1.230668 8.356189 3.442586 2.217551 2.211919 3.463821 5.215307 3.463811 8.347414z" fill="#fff"/>
   <path d="m3.94 4.14 176.3 114.29c1.21607-1.73166 1.99491-3.73195 2.27-5.83v-100.75c-0.20592-2.5271101-1.15199-4.937504-2.72-6.93-1.86145-2.1977812-4.47453-3.6237451-7.33-4-0.86718-0.0865397-1.73861-0.12326663-2.61-0.11h-157.77c-2.1164231 0.04501934-4.1845005 0.641315-6 1.73-0.7437365 0.4914123-1.4582753 1.0256469-2.14 1.6z" fill="#f5f5f5" opacity=".57"/>
  </g>
  <path d="m300.61 331.85c-2.2093 9.92619-5.42943 19.59999-9.61 28.87 0 0-40.95 5.75-97.3-15.28 0 0-26.32-11.41-29.91-13.59z" fill="#191919"/>
  <path d="m305.8 331.85-0.74 5.77c-0.22891 1.81128-1.87736 3.09787-3.69 2.88h-0.14c-9.75-1.74-39-5.81-67.29-0.85-34.63 6.06-52.52 0.86-52.52 0.86s-12.59-5.95-17.63-8.66z" fill="url(#f)"/>
  <g transform="translate(123,306)">
   <g id="j">
    <path id="k" d="M 0.17357629,0.71 H 242 c 0,6.9422193 -5.62778,12.57 -12.57,12.57 H 18.829487 C 12.598404,9.3703333 6.3751828,5.1814125 0.17361235,0.71000022 Z" fill="url(#e)"/>
    <path d="m18.829487 13.28h194.550513c0 6.942219-5.62778 12.57-12.57 12.57h-160.120811c-7.282627-3.81193-14.576534-8.000207-21.859702-12.57z" fill="url(#d)"/>
   </g>
  </g>
  <g transform="translate(305,48)" stroke="#141414">
   <circle cx="48" cy="47.259998" r="47.169998" fill="#fff" stroke-width="3"/>
   <g stroke-linecap="round" stroke-linejoin="round">
    <polyline points="47.97 17.17 47.97 47.26 71.52 47.26" fill="#fff"/>
    <path d="m47.97 5.34v4.03"/>
    <path d="m62.22 7.83-1.36 3.79"/>
    <path d="m74.8 15.04-2.6 3.09"/>
    <path d="m84.15 26.07-3.48 2.04"/>
    <path d="m89.2 39.62-3.98 0.75"/>
    <path d="m89.34 54.1-4-0.66"/>
    <path d="m84.55 67.76-3.54-1.97"/>
    <path d="m75.39 78.97-2.64-3.05"/>
    <path d="m62.97 86.4-1.44-3.78"/>
    <path d="m48.77 89.17-0.09-4.04"/>
    <path d="m34.47 86.93 1.3-3.82"/>
    <path d="m21.77 79.97 2.53-3.15"/>
    <path d="m12.22 69.11 3.44-2.11"/>
    <path d="m6.9 55.64 3.97-0.79"/>
    <path d="m6.5 41.18 4 0.59"/>
    <path d="m11.04 27.43 3.57 1.91"/>
    <path d="m19.97 16.06 2.7 3.01"/>
    <path d="m32.25 8.39 1.52 3.75"/>
   </g>
  </g>
  <path d="m75.6 17.08c-5.517258 0.718131-10.983154-1.651832-14.23-6.17-2.89-3.91-8.76-8.97-17.98-3.91-13.85 7.58-16.08 15.57-29.93 18.3s-17.15 13.41-9.25 21.46 9.25 17 5.19 24.12-6.27 25.47 7.92 26.8 22.51-1.33 26.52 9.84 20 25.06 39.5 13.4 38.93-0.46 46.32-1.83c3.97431-0.69749 7.5082-2.94661 9.82291-6.25172 2.3147-3.30512 3.22025-7.39497 2.51709-11.36828 0-0.32-0.12-0.63-0.19-1-2-10.13 1.35-20.26 8.77-25 0 0 9.13-2.59 11.35-14.11s0.34-24-16.82-29.82-12.4-19-27.51-26.7-26-2.42-30.22 2.56c-3.38 3.96-5.99 8.83-11.78 9.68z" fill="url(#c)"/>
  <path d="m130.72 122c-1.3053 3.99904-4.89515 6.81484-9.09 7.13-7.34 0.71-6.65 10.86 2.44 9.46s11.55 1.05 14.53 1.4 7.51-0.54 7.88-6-4.21-5.07-7.36-5.19-0.17-5.94-2.1-7.69c-0.8221-0.74011-1.90458-1.12326-3.00922-1.06512-1.10464 0.0581-2.14092 0.5528-2.88078 1.37512-0.15257 0.18158-0.28972 0.37559-0.41 0.58z" fill="url(#b)"/>
  <path d="m152.05 147.94c-1.31959-0.90733-3.03969-0.98743-4.43789-0.20664-1.3982 0.78078-2.23234 2.28722-2.15211 3.88664v0.44c0.17 5.19 4.53 3.15 6.7 3.46s3.27-2.15 3.27-4.22-1.77-1.81-3.05-3.14z" fill="url(#a)"/>
  <g transform="translate(46,25)" fill="#fff" fill-rule="nonzero">
   <path id="l" d="m38.11 64.89 4.64-0.19-0.32-7.44-4.84 0.22c-0.511757-1.690188-1.291692-3.287197-2.31-4.73l3.22-3.36-5.36-5.19-3.36 3.46c-1.540255-0.865836-3.20739-1.483418-4.94-1.83v-4.56h-7.45v4.87c-2.080865 0.532541-4.037558 1.466726-5.76 2.75l-3.46-3.31-5.08 5.42 3.74 3.46c-1.0787882 2.078112-1.7219223 4.354602-1.89 6.69l-4.6 0.6 0.95 7.38 4.81-0.62c0.6594649 1.640078 1.5740897 3.165578 2.71 4.52l-2.93 3.61 5.8 4.66 2.93-3.77c1.602515 0.739565 3.315054 1.212455 5.07 1.4l0.4 4.62 7.41-0.64-0.36-4.81c1.653865-0.584894 3.205984-1.425063 4.6-2.49l3.47 3.06 4.91-5.59-3.65-3.21c0.80847-1.562899 1.365315-3.243558 1.65-4.98zm-16.72 3.64c-3.827333 0-6.93-3.102667-6.93-6.93s3.102667-6.93 6.93-6.93 6.93 3.102667 6.93 6.93c0.0027 1.838764-0.72661 3.602982-2.026814 4.903186s-3.064422 2.029473-4.903186 2.026814z"/>
   <path d="m80.58 44.62 4.66-0.2-0.31-7.42-4.85 0.22c-0.510459-1.685761-1.286906-3.279167-2.3-4.72l3.22-3.38-5.39-5.2-3.34 3.47c-1.539083-0.870538-3.206444-1.491579-4.94-1.84v-4.55h-7.44v4.86c-2.0853 0.533864-4.045638 1.471565-5.77 2.76l-3.46-3.31-5.06 5.45 3.74 3.47c-1.090287 2.06935-1.730951 4.345751-1.88 6.68l-4.63 0.61 1 7.37 4.82-0.62c0.648753 1.638877 1.553322 3.164494 2.68 4.52l-2.91 3.62 5.8 4.66 3-3.71c1.599448 0.738352 3.308498 1.211212 5.06 1.4l0.4 4.63 7.41-0.71-0.43-4.84c1.661883-0.580696 3.221228-1.421122 4.62-2.49l3.46 3.07 4.92-5.6-3.65-3.2c0.787806-1.5718 1.317898-3.25999 1.57-5zm-16.69 3.63c-2.803833-3e-6 -5.331393-1.689527-6.403436-4.280319-1.072044-2.590791-0.477308-5.572291 1.506733-7.553468 1.98404-1.981177 4.966395-2.571607 7.555636-1.495824 2.58924 1.075784 4.275113 3.605781 4.271067 6.409611 2e-6 1.837032-0.73044 3.598678-2.030355 4.896718-1.299916 1.298039-3.062615 2.025937-4.899645 2.023282z"/>
   <path d="m42.19 22.73 4.63-0.64-1-7.38-4.8 0.68c-0.677281-1.624636-1.605227-3.132971-2.75-4.47l2.87-3.66-5.85-4.6-3 3.83c-1.615136-0.716639-3.332669-1.1755476-5.09-1.36l-0.43-4.6-7.41 0.73 0.48 4.83c-2.028331 0.7301107-3.893601 1.8513113-5.49 3.3l-3.84-2.94-4.51 5.89 4 3.1c-0.9007186 2.191999-1.3201762 4.551874-1.23 6.92l-4.57 1 1.8 7.25 4.73-1.09c0.812549 1.563998 1.86913 2.988525 3.13 4.22l-2.55 3.9 6.19 4.14 2.66-4.07c1.673515 0.578232 3.429495 0.882151 5.2 0.9l0.85 4.57 7.29-1.4-0.94-4.78c1.595852-0.74043 3.064107-1.729393 4.35-2.93l3.79 2.7 4.33-6-4-2.81c0.677843-1.665753 1.070005-3.433864 1.16-5.23zm-16.26 5.19c-2.788649 0.288793-5.476582-1.131078-6.809937-3.597275-1.333355-2.466198-1.049425-5.492813 0.719343-7.667997s4.673879-3.070366 7.360161-2.267963c2.686283 0.802402 4.624468 3.144295 4.910433 5.933235v0.07c0.360369 3.782132-2.400218 7.14576-6.18 7.53z"/>
  </g>
 </g>
</svg>
