<svg version="1.1" viewBox="0 0 26 26" xmlns="http://www.w3.org/2000/svg">
 <g fill="#fff">
  <path d="m19.48 0h-12.98c-3.5908002 0.01649281-6.49453889 2.9291661-6.5 6.52v13c0.02733884 3.575213 2.9247197 6.463679 6.5 6.48h13c3.5908-0.01649 6.494539-2.929166 6.5-6.52v-13c-0.027431-3.5829825-2.936917-6.47461789-6.52-6.48zm-5.18 16.61c-0.907764 0.0122-1.765101-0.416469-2.3-1.15 0 0-0.56 2.14-0.68 2.55-0.398281 1.11313-0.987047 2.148546-1.74 3.06-0.01933 0.07456-0.095442 0.11933-0.17 0.1s-0.11933-0.09544-0.1-0.17c-0.1963674-1.175187-0.1963674-2.374813 0-3.55 0.18-0.77 1.24-5.08 1.24-5.08-0.20832-0.458318-0.314114-0.956576-0.31-1.46 0-1.39 0.82-2.42 1.85-2.42 0.36579-0.010582 0.718367 0.1371353 0.967374 0.405296 0.249006 0.2681607 0.370238 0.6306989 0.332626 0.994704-0.181852 1.125944-0.462948 2.233594-0.84 3.31-0.115728 0.456601-0.0025 0.940965 0.303771 1.298885 0.30622 0.35792 0.767219 0.54479 1.236229 0.501115 1.82 0 3.06-2.27 3.06-4.95 0-2-1.43-3.57-4-3.57-1.23-0.0713601-2.435282 0.3658518-3.3334724 1.2092054-0.8981905 0.8433535-1.4103638 2.0187422-1.4165276 3.2507946-0.034619 0.6634 0.1793096 1.315881 0.6 1.83 0.1566762 0.123202 0.2136422 0.33479 0.14 0.52 0 0.16-0.14 0.58-0.2 0.74-0.019423 0.103319-0.086912 0.191201-0.1817192 0.23663-0.0948069 0.045428-0.2055859 0.042966-0.2982808-0.00663-1.3480947-0.654175-2.1461538-2.078711-2-3.57 0-2.64 2.31-5.82 6.87-5.82 3.68 0 6.09 2.58 6.09 5.34 0.06 3.68-2.02 6.4-5.12 6.4z" fill="#fff"/>
 </g>
</svg>
