<svg version="1.1" viewBox="0 0 16.00152 27.121069" xmlns="http://www.w3.org/2000/svg">
 <path d="m13.54076 27.120535a2.41 2.41 0 0 0 2.46-2.47v-22.1800004a2.41 2.41 0 0 0-2.46-2.469999973h-11.0799996a2.41 2.41 0 0 0-2.460000023 2.469999973v22.1800004a2.41 2.41 0 0 0 2.460000023 2.47zm-5.5399996-1.03a1.23 1.23 0 1 1 0-2.46 1.23 1.23 0 0 1 0 2.46zm-3.08-24.5900004a0.27 0.27 0 0 1 0.28-0.27h5.5999996c0.15 0 0.275 0.12 0.28 0.27v0.08a0.27 0.27 0 0 1-0.28 0.27h-5.5999996a0.28 0.28 0 0 1-0.28-0.27zm-3.69 1.58h13.5399996v19.6900004h-13.5399996z" fill="#fff"/>
</svg>
