<svg version="1.1" viewBox="0 0 26.000008 26" xmlns="http://www.w3.org/2000/svg">
 <g fill="#fff">
  <path d="m19.46 0h-12.94c-3.5986132 0.00550669-6.51449331 2.9213868-6.52 6.52v13c0.02743154 3.582982 2.9369166 6.474618 6.52 6.48h13c3.590781-0.02749 6.485604-2.949119 6.48-6.54v-12.94c-0.021932-3.5995709-2.940379-6.50909231-6.54-6.52zm0 9.73v0.43c2.82e-4 2.496267-1.000839 4.888311-2.779075 6.640231s-4.18494 2.717267-6.680925 2.679769c-1.8099955 0.00676-3.5837769-0.506978-5.11-1.48h0.78c1.4922342 0.01328 2.9447932-0.480311 4.12-1.4-1.4143855-0.0169-2.6627483-0.928084-3.11-2.27 0.2042778 0.03974 0.411892 0.05983 0.62 0.06 0.300841 0.0022 0.6004762-0.03823 0.89-0.12-1.5257269-0.317361-2.6194999-1.661616-2.62-3.22 0.4517923 0.257062 0.9603351 0.397942 1.48 0.41-1.4559331-0.936627-1.9183467-2.8523402-1.05-4.35 1.7046071 2.04918 4.18805 3.292714 6.85 3.43-0.06436-0.24467-0.09464-0.49705-0.09-0.75 0.0052-0.8778221 0.361062-1.7171497 0.988326-2.3312668 0.627263-0.6141171 1.473938-0.9520898 2.351674-0.9387332 0.91496-0.00962 1.794955 0.3510309 2.44 1 0.74253-0.1432089 1.453629-0.4174897 2.1-0.81-0.255208 0.7607344-0.77273 1.4058649-1.46 1.82 0.659307-0.081571 1.302933-0.2601683 1.91-0.53-0.440628 0.6718832-0.999716 1.2580779-1.65 1.73z" fill="#fff"/>
 </g>
</svg>
