<svg version="1.1" viewBox="0 0 459.904 412.47752" xmlns="http://www.w3.org/2000/svg">
 <g transform="translate(0,-23.7135)">
  <path d="m123.465 168.28h46.543v138.07c0 14.008 11.358 25.352 25.352 25.352h69.2c13.993 0 25.352-11.343 25.352-25.352v-138.07h46.527c7.708 0 14.637-4.641 17.601-11.764 2.933-7.094 1.301-15.295-4.145-20.741l-106.482-106.495c-7.437-7.422-19.485-7.422-26.938 0l-106.464 106.495c-5.447 5.446-7.079 13.633-4.13 20.741 2.962 7.109 9.876 11.764 17.584 11.764z" fill="#ef6c00"/>
  <path d="m437.036 220.029c-12.617 0-22.852 10.237-22.852 22.867v95.615c0 28.643-23.317 51.944-51.961 51.944h-264.544c-28.644 0-51.945-23.301-51.945-51.944v-95.615c0-12.63-10.251-22.867-22.867-22.867-12.631 0-22.867 10.237-22.867 22.868v95.615c0 53.859 43.818 97.679 97.679 97.679h264.544c53.861 0 97.681-43.819 97.681-97.679v-95.615c0-12.631-10.237-22.868-22.868-22.868z" fill="#ef6c00"/>
 </g>
</svg>
